<?xml version="1.0" encoding="utf-8"?>
<!-- Generator: Adobe Illustrator 16.0.0, SVG Export Plug-In . SVG Version: 6.00 Build 0)  -->
<!DOCTYPE svg PUBLIC "-//W3C//DTD SVG 1.1//EN" "http://www.w3.org/Graphics/SVG/1.1/DTD/svg11.dtd">
<svg version="1.1" xmlns="http://www.w3.org/2000/svg" xmlns:xlink="http://www.w3.org/1999/xlink" x="0px" y="0px" width="1000px"
	 height="792px" viewBox="0 0 1000 792" enable-background="new 0 0 1000 792" xml:space="preserve">
<g id="Layer_43">
</g>
<g id="_x31_0165-A">
	<polygon fill="#E6E7E8" points="175.956,729.752 119.658,767.94 9.382,631.762 67.459,593.336 	"/>
	<g>
		<path fill="#8DC63F" d="M119,766c0-14-5-26.5-3-40.5c2-17.5,6.599-33.49,19.599-46.49l40.356,50.742L119,766z"/>
	</g>
	<g>
		<path fill="#8DC63F" d="M9.382,631.762l58.078-38.426l40.356,50.742C79.315,663.078,39.5,652.5,13,632.5"/>
	</g>
</g>
<g id="_x31_0165-B">
	<polygon fill="#C2B59B" stroke="#000000" stroke-miterlimit="10" points="145.126,618.85 107.815,644.078 67.459,593.336 
		104.771,568.109 	"/>
	<text transform="matrix(1 0 0 1 97.3335 603.333)" font-family="'MyriadPro-Regular'" font-size="21">B</text>
</g>
<g id="_x31_0165-C">
	<polygon fill="#C2B59B" stroke="#000000" stroke-miterlimit="10" points="182.438,593.623 145.126,618.85 104.771,568.109 
		142.082,542.881 	"/>
	<text transform="matrix(1 0 0 1 136 580.333)" font-family="'MyriadPro-Regular'" font-size="21">C</text>
</g>
<g id="_x31_0165-D">
	<polygon fill="#C2B59B" stroke="#000000" stroke-miterlimit="10" points="219.749,568.395 182.437,593.623 142.081,542.881 
		179.393,517.652 	"/>
	<text transform="matrix(1 0 0 1 173 558.667)" font-family="'MyriadPro-Regular'" font-size="21">D</text>
</g>
<g id="_x31_0165-E">
	<polygon fill="#C2B59B" stroke="#000000" stroke-miterlimit="10" points="257.06,543.168 219.749,568.395 179.393,517.652 
		216.703,492.426 	"/>
	<text transform="matrix(1 0 0 1 213.3335 531.667)" font-family="'MyriadPro-Regular'" font-size="21">E</text>
</g>
<g id="_x31_0165-F">
	<polygon fill="#C2B59B" stroke="#000000" stroke-miterlimit="10" points="294.371,517.939 257.06,543.168 216.703,492.426 
		254.014,467.199 	"/>
	<text transform="matrix(1 0 0 1 251 509.333)" font-family="'MyriadPro-Regular'" font-size="21">F</text>
</g>
<g id="_x31_0165-G">
	<polygon fill="#C2B59B" stroke="#000000" stroke-miterlimit="10" points="331.682,492.713 294.37,517.939 254.014,467.199 
		291.325,441.972 	"/>
	<text transform="matrix(1 0 0 1 285.667 483)" font-family="'MyriadPro-Regular'" font-size="21">G</text>
</g>
<g id="_x31_0165-H">
	<polygon fill="#C2B59B" stroke="#000000" stroke-miterlimit="10" points="368.992,467.484 331.681,492.713 291.325,441.972 
		328.636,416.744 	"/>
	<text transform="matrix(1 0 0 1 322 459.667)" font-family="'MyriadPro-Regular'" font-size="21">H</text>
</g>
<g id="_x31_0165-I">
	<polygon fill="#C2B59B" stroke="#000000" stroke-miterlimit="10" points="406.304,442.259 368.992,467.484 328.635,416.744 
		365.947,391.518 	"/>
	<text transform="matrix(1 0 0 1 361.3335 434)" font-family="'MyriadPro-Regular'" font-size="21">I</text>
</g>
<g id="_x31_0165-J">
	<polygon fill="#C2B59B" stroke="#000000" stroke-miterlimit="10" points="443.614,417.03 406.303,442.26 365.946,391.518 
		403.257,366.29 	"/>
	<text transform="matrix(1 0 0 1 398.667 406)" font-family="'MyriadPro-Regular'" font-size="21">J</text>
</g>
<g id="_x31_0165-K">
	<polygon fill="#C2B59B" stroke="#000000" stroke-miterlimit="10" points="480.926,391.806 443.612,417.033 403.256,366.291 
		440.568,341.063 	"/>
	<text transform="matrix(1 0 0 1 438.0908 383.0483)" font-family="'MyriadPro-Regular'" font-size="21">K</text>
</g>
<g id="_x31_0165-L">
	<polygon fill="#C2B59B" stroke="#000000" stroke-miterlimit="10" points="213.267,704.523 175.956,729.752 135.599,679.01 
		172.911,653.783 	"/>
	<text transform="matrix(1 0 0 1 168 695)" font-family="'MyriadPro-Regular'" font-size="21">L</text>
</g>
<g id="_x31_0165-M">
	<polygon fill="#C2B59B" stroke="#000000" stroke-miterlimit="10" points="250.578,679.297 213.267,704.525 172.911,653.783 
		210.221,628.555 	"/>
	<text transform="matrix(1 0 0 1 205.3335 671.333)" font-family="'MyriadPro-Regular'" font-size="21">M</text>
</g>
<g id="_x31_0165-N">
	<polygon fill="#C2B59B" stroke="#000000" stroke-miterlimit="10" points="287.888,654.068 250.577,679.299 210.221,628.555 
		247.532,603.328 	"/>
	<text transform="matrix(1 0 0 1 242.667 646)" font-family="'MyriadPro-Regular'" font-size="21">N</text>
</g>
<g id="_x31_0165-O">
	<polygon fill="#C2B59B" stroke="#000000" stroke-miterlimit="10" points="325.201,628.844 287.889,654.07 247.532,603.33 
		284.843,578.1 	"/>
	<text transform="matrix(1 0 0 1 280 622)" font-family="'MyriadPro-Regular'" font-size="21">O</text>
</g>
<g id="_x31_0165-P">
	<polygon fill="#C2B59B" stroke="#000000" stroke-miterlimit="10" points="362.51,603.613 325.2,628.844 284.843,578.1 
		322.154,552.873 	"/>
	<text transform="matrix(1 0 0 1 321 596.667)" font-family="'MyriadPro-Regular'" font-size="21">P</text>
</g>
<g id="_x31_0165-Q">
	<polygon fill="#C2B59B" stroke="#000000" stroke-miterlimit="10" points="399.822,578.389 362.51,603.615 322.154,552.875 
		359.466,527.646 	"/>
	<text transform="matrix(1 0 0 1 355.3389 568)" font-family="'MyriadPro-Regular'" font-size="21">Q</text>
</g>
<g id="_x31_0165-R">
	<polygon fill="#C2B59B" stroke="#000000" stroke-miterlimit="10" points="437.133,553.16 399.822,578.389 359.465,527.646 
		396.776,502.42 	"/>
	<text transform="matrix(1 0 0 1 390.6719 544.667)" font-family="'MyriadPro-Regular'" font-size="21">R</text>
</g>
<g id="_x31_0165-S">
	<polygon fill="#C2B59B" stroke="#000000" stroke-miterlimit="10" points="474.443,527.934 437.131,553.16 396.774,502.418 
		434.086,477.191 	"/>
	<text transform="matrix(1 0 0 1 429.3389 518)" font-family="'MyriadPro-Regular'" font-size="21">S</text>
</g>
<g id="_x31_0165-T">
	<polygon fill="#C2B59B" stroke="#000000" stroke-miterlimit="10" points="511.754,502.705 474.443,527.934 434.087,477.191 
		471.396,451.963 	"/>
	<text transform="matrix(1 0 0 1 467.6719 496.333)" font-family="'MyriadPro-Regular'" font-size="21">T</text>
</g>
<g id="_x31_0165-U">
	<polygon fill="#C2B59B" stroke="#000000" stroke-miterlimit="10" points="549.065,477.48 511.754,502.707 471.396,451.965 
		508.708,426.738 	"/>
	<text transform="matrix(1 0 0 1 502.6719 468.667)" font-family="'MyriadPro-Regular'" font-size="21">U</text>
</g>
<g id="_x31_0165-V">
	<polygon fill="#E6E7E8" points="605.216,434.985 549.065,477.48 440.568,341.063 498.505,302.832 	"/>
</g>
<g id="_x31_0165-W">
	<polygon fill="#C2B59B" stroke="#000000" stroke-miterlimit="10" points="576.622,328.819 539.31,354.047 498.953,303.304 
		536.265,278.077 	"/>
	<text transform="matrix(1 0 0 1 528.0059 318)" font-family="'MyriadPro-Regular'" font-size="21">W</text>
</g>
<g id="_x31_0165-X">
	<polygon fill="#C2B59B" stroke="#000000" stroke-miterlimit="10" points="614.573,303.484 577.261,328.712 536.904,277.97 
		574.217,252.743 	"/>
	<text transform="matrix(1 0 0 1 568.7383 294.7275)" font-family="'MyriadPro-Regular'" font-size="21">X</text>
</g>
<g id="_x31_0165-Y">
	<polygon fill="#C2B59B" stroke="#000000" stroke-miterlimit="10" points="653.408,277.604 616.096,302.832 575.739,252.089 
		613.051,226.862 	"/>
	<text transform="matrix(1 0 0 1 610.6719 270)" font-family="'MyriadPro-Regular'" font-size="21">Y</text>
</g>
<g id="_x31_0165-Z">
	<polygon fill="#C2B59B" stroke="#000000" stroke-miterlimit="10" points="692.243,251.849 654.931,277.077 614.573,226.334 
		651.886,201.107 	"/>
	<text transform="matrix(1 0 0 1 648.0059 242)" font-family="'MyriadPro-Regular'" font-size="21">Z</text>
</g>
<g id="_x31_0165-AA">
	<polygon fill="#C2B59B" stroke="#000000" stroke-miterlimit="10" points="729.312,226.515 691.998,251.743 651.642,201 
		688.954,175.773 	"/>
	<text transform="matrix(1 0 0 1 678.6719 220.3335)" font-family="'MyriadPro-Regular'" font-size="21">AA</text>
</g>
<g id="_x31_0165-BB">
	<polygon fill="#C2B59B" stroke="#000000" stroke-miterlimit="10" points="768.146,200.634 730.833,225.862 690.477,175.119 
		727.789,149.892 	"/>
	<text transform="matrix(1 0 0 1 718.0059 191.6665)" font-family="'MyriadPro-Regular'" font-size="21">BB</text>
</g>
<g id="_x31_0165-CC">
	<polygon fill="#C2B59B" stroke="#000000" stroke-miterlimit="10" points="806.98,175.879 769.668,201.107 729.312,150.365 
		766.623,125.138 	"/>
	<text transform="matrix(1 0 0 1 757.6719 167.6665)" font-family="'MyriadPro-Regular'" font-size="21">CC</text>
</g>
<g id="_x31_0165-DD">
	<polygon fill="#C2B59B" stroke="#000000" stroke-miterlimit="10" points="844.815,149.545 807.503,174.773 767.146,124.03 
		804.458,98.803 	"/>
	<text transform="matrix(1 0 0 1 793.6719 143.3335)" font-family="'MyriadPro-Regular'" font-size="21">DD</text>
</g>
<g id="_x31_0165-EE">
	<polygon fill="#C2B59B" stroke="#000000" stroke-miterlimit="10" points="882.65,123.664 845.337,148.892 804.98,98.149 
		842.293,72.922 	"/>
	<text transform="matrix(1 0 0 1 834.0059 117)" font-family="'MyriadPro-Regular'" font-size="21">EE</text>
</g>
<g id="_x31_0165-FF">
	<polygon fill="#C2B59B" stroke="#000000" stroke-miterlimit="10" points="642.529,409.757 605.216,434.985 564.859,384.242 
		602.172,359.015 	"/>
	<text transform="matrix(1 0 0 1 593.6719 402)" font-family="'MyriadPro-Regular'" font-size="21">FF</text>
</g>
<g id="_x31_0165-GG">
	<polygon fill="#C2B59B" stroke="#000000" stroke-miterlimit="10" points="680.364,383.805 643.051,409.033 602.694,358.291 
		640.007,333.063 	"/>
	<text transform="matrix(1 0 0 1 628.3389 378.6665)" font-family="'MyriadPro-Regular'" font-size="21">GG</text>
</g>
<g id="_x31_0165-HH">
	<polygon fill="#C2B59B" stroke="#000000" stroke-miterlimit="10" points="718.199,358.998 680.886,384.226 640.529,333.483 
		677.842,308.256 	"/>
	<text transform="matrix(1 0 0 1 666.6719 352.6665)" font-family="'MyriadPro-Regular'" font-size="21">HH</text>
</g>
<g id="_x31_0165-II">
	<polygon fill="#C2B59B" stroke="#000000" stroke-miterlimit="10" points="757.034,333.787 719.721,359.015 679.364,308.272 
		716.677,283.045 	"/>
	<text transform="matrix(1 0 0 1 713.1992 327.0303)" font-family="'MyriadPro-Regular'" font-size="21">II</text>
</g>
<g id="_x31_0165-JJ">
	<polygon fill="#C2B59B" stroke="#000000" stroke-miterlimit="10" points="795.869,307.835 758.556,333.063 718.199,282.32 
		755.512,257.093 	"/>
	<text transform="matrix(1 0 0 1 749.6719 299.6665)" font-family="'MyriadPro-Regular'" font-size="21">JJ</text>
</g>
<g id="_x31_0165-KK">
	<polygon fill="#C2B59B" stroke="#000000" stroke-miterlimit="10" points="834.704,283.027 797.391,308.256 757.034,257.513 
		794.347,232.286 	"/>
	<text transform="matrix(1 0 0 1 785.6719 273.3335)" font-family="'MyriadPro-Regular'" font-size="21">KK</text>
</g>
<g id="_x31_0165-LL">
	<polygon fill="#C2B59B" stroke="#000000" stroke-miterlimit="10" points="872.539,256.816 835.226,282.045 794.869,231.302 
		832.182,206.075 	"/>
	<text transform="matrix(1 0 0 1 828.0059 248.6665)" font-family="'MyriadPro-Regular'" font-size="21">LL</text>
</g>
<g id="_x31_0165-MM">
	<polygon fill="#C2B59B" stroke="#000000" stroke-miterlimit="10" points="910.374,230.865 873.061,256.093 832.704,205.35 
		870.017,180.123 	"/>
	<text transform="matrix(1 0 0 1 854.5391 222.1084)" font-family="'MyriadPro-Regular'" font-size="21">MM</text>
</g>
<g id="_x31_0165-NN">
	<polygon fill="#C2B59B" stroke="#000000" stroke-miterlimit="10" points="948.209,206.057 910.896,231.286 870.539,180.542 
		907.852,155.315 	"/>
	<text transform="matrix(1 0 0 1 897.374 198.3008)" font-family="'MyriadPro-Regular'" font-size="21">NN</text>
</g>
<g id="_x31_0165-OO">
	<polygon fill="#E6E7E8" points="980.929,179.97 948.209,205.057 843.31,72.705 911.889,31.34 	"/>
</g>
<g id="ROAD">
	<polygon fill="#E6E7E8" points="508.708,426.738 135.599,679.01 107.815,644.078 481.865,391.874 	"/>
	<polygon fill="#E6E7E8" points="908.093,153.904 565.998,385.324 539.269,353.986 882.965,121.139 	"/>
</g>
</svg>
